{"asset":{"version":"2.0","generator":"Blockbench 4.10.4 glTF exporter"},"scenes":[{"nodes":[8],"name":"blockbench_export"}],"scene":0,"nodes":[{"translation":[-0.0031249999999998224,0,0],"name":"cuboid","mesh":0},{"rotation":[-0.7071067811865475,0,0,0.7071067811865476],"translation":[-0.06249999999999999,2.125,-0.25],"name":"plane","mesh":1},{"rotation":[-0.7071067811865475,0,0,0.7071067811865476],"translation":[-0.0625,1.625,0],"name":"plane","mesh":2},{"rotation":[0,-1,0,6.123233995736766e-17],"translation":[1,-0.25,0],"name":"cuboid","mesh":3},{"translation":[1,0,0],"name":"plane","mesh":4},{"translation":[1,0,0],"name":"plane","mesh":5},{"rotation":[-0.7071067811865475,0,0,0.7071067811865476],"translation":[0.3125,2.375,0],"name":"bone","children":[3,4,5]},{"translation":[-0.0625,1.625,0],"name":"bone2"},{"children":[0,1,2,6,7]}],"bufferViews":[{"buffer":0,"byteOffset":0,"byteLength":4368,"target":34962,"byteStride":12},{"buffer":0,"byteOffset":4368,"byteLength":4368,"target":34962,"byteStride":12},{"buffer":0,"byteOffset":8736,"byteLength":2912,"target":34962,"byteStride":8},{"buffer":0,"byteOffset":11648,"byteLength":1032,"target":34963},{"buffer":0,"byteOffset":12680,"byteLength":48,"target":34962,"byteStride":12},{"buffer":0,"byteOffset":12728,"byteLength":48,"target":34962,"byteStride":12},{"buffer":0,"byteOffset":12776,"byteLength":32,"target":34962,"byteStride":8},{"buffer":0,"byteOffset":12808,"byteLength":12,"target":34963},{"buffer":0,"byteOffset":12820,"byteLength":48,"target":34962,"byteStride":12},{"buffer":0,"byteOffset":12868,"byteLength":48,"target":34962,"byteStride":12},{"buffer":0,"byteOffset":12916,"byteLength":32,"target":34962,"byteStride":8},{"buffer":0,"byteOffset":12948,"byteLength":12,"target":34963},{"buffer":0,"byteOffset":12960,"byteLength":2304,"target":34962,"byteStride":12},{"buffer":0,"byteOffset":15264,"byteLength":2304,"target":34962,"byteStride":12},{"buffer":0,"byteOffset":17568,"byteLength":1536,"target":34962,"byteStride":8},{"buffer":0,"byteOffset":19104,"byteLength":576,"target":34963},{"buffer":0,"byteOffset":19680,"byteLength":48,"target":34962,"byteStride":12},{"buffer":0,"byteOffset":19728,"byteLength":48,"target":34962,"byteStride":12},{"buffer":0,"byteOffset":19776,"byteLength":32,"target":34962,"byteStride":8},{"buffer":0,"byteOffset":19808,"byteLength":12,"target":34963},{"buffer":0,"byteOffset":19820,"byteLength":48,"target":34962,"byteStride":12},{"buffer":0,"byteOffset":19868,"byteLength":48,"target":34962,"byteStride":12},{"buffer":0,"byteOffset":19916,"byteLength":32,"target":34962,"byteStride":8},{"buffer":0,"byteOffset":19948,"byteLength":12,"target":34963}],"buffers":[{"byteLength":19960,"uri":"data:application/octet-stream;base64,"}],"accessors":[{"bufferView":0,"componentType":5126,"count":364,"max":[0.6875,3.4375,0.546875],"min":[-0.8062499761581421,0,-0.546875],"type":"VEC3"},{"bufferView":1,"componentType":5126,"count":364,"max":[1,1,1],"min":[-1,-1,-1],"type":"VEC3"},{"bufferView":2,"componentType":5126,"count":364,"max":[0.703125,0.640625],"min":[0,0],"type":"VEC2"},{"bufferView":3,"componentType":5123,"count":516,"max":[363],"min":[0],"type":"SCALAR"},{"bufferView":4,"componentType":5126,"count":4,"max":[0.24375000596046448,-2.3592239273284576e-16,0],"min":[-0.2562499940395355,-2.3592239273284576e-16,-1.5625],"type":"VEC3"},{"bufferView":5,"componentType":5126,"count":4,"max":[0,1,0],"min":[0,1,0],"type":"VEC3"},{"bufferView":6,"componentType":5126,"count":4,"max":[0.791015625,0.1953124850988388],"min":[0.728515625,0],"type":"VEC2"},{"bufferView":7,"componentType":5123,"count":6,"max":[3],"min":[0],"type":"SCALAR"},{"bufferView":8,"componentType":5126,"count":4,"max":[0.375,0,0.5],"min":[-0.375,0,-0.5],"type":"VEC3"},{"bufferView":9,"componentType":5126,"count":4,"max":[0,1,0],"min":[0,1,0],"type":"VEC3"},{"bufferView":10,"componentType":5126,"count":4,"max":[0.923828125,0.1367187350988388],"min":[0.828125,0.009765644557774067],"type":"VEC2"},{"bufferView":11,"componentType":5123,"count":6,"max":[3],"min":[0],"type":"SCALAR"},{"bufferView":12,"componentType":5126,"count":192,"max":[0.5582026839256287,0.28125,0.5582026839256287],"min":[-0.5582026839256287,0.234375,-0.5582026839256287],"type":"VEC3"},{"bufferView":13,"componentType":5126,"count":192,"max":[0.9297593235969543,1,0.9297593235969543],"min":[-0.9297593235969543,-1,-0.9297593235969543],"type":"VEC3"},{"bufferView":14,"componentType":5126,"count":192,"max":[1,0.6163812279701233],"min":[0.6484375,0.36328125],"type":"VEC2"},{"bufferView":15,"componentType":5123,"count":288,"max":[191],"min":[0],"type":"SCALAR"},{"bufferView":16,"componentType":5126,"count":4,"max":[0.03125,0.02812499925494194,0.046875],"min":[-0.46875,0.02812499925494194,-0.046875],"type":"VEC3"},{"bufferView":17,"componentType":5126,"count":4,"max":[0,1,0],"min":[0,1,0],"type":"VEC3"},{"bufferView":18,"componentType":5126,"count":4,"max":[0.841796875,0.2324218600988388],"min":[0.779296875,0.2167968600988388],"type":"VEC2"},{"bufferView":19,"componentType":5123,"count":6,"max":[3],"min":[0],"type":"SCALAR"},{"bufferView":20,"componentType":5126,"count":4,"max":[0.046875,0.02187499962747097,0.46875],"min":[-0.046875,0.02187499962747097,-0.03125],"type":"VEC3"},{"bufferView":21,"componentType":5126,"count":4,"max":[0,1,0],"min":[0,1,0],"type":"VEC3"},{"bufferView":22,"componentType":5126,"count":4,"max":[0.763671875,0.28125],"min":[0.748046875,0.21875],"type":"VEC2"},{"bufferView":23,"componentType":5123,"count":6,"max":[3],"min":[0],"type":"SCALAR"}],"materials":[{"pbrMetallicRoughness":{"metallicFactor":0,"roughnessFactor":1,"baseColorTexture":{"index":0}},"alphaMode":"MASK","alphaCutoff":0.05,"doubleSided":true}],"textures":[{"sampler":0,"source":0,"name":"stiched_texture"}],"samplers":[{"magFilter":9728,"minFilter":9728,"wrapS":33071,"wrapT":33071}],"images":[{"mimeType":"image/png","uri":"data:image/png;base64,"}],"meshes":[{"primitives":[{"mode":4,"attributes":{"POSITION":0,"NORMAL":1,"TEXCOORD_0":2},"indices":3,"material":0}]},{"primitives":[{"mode":4,"attributes":{"POSITION":4,"NORMAL":5,"TEXCOORD_0":6},"indices":7,"material":0}]},{"primitives":[{"mode":4,"attributes":{"POSITION":8,"NORMAL":9,"TEXCOORD_0":10},"indices":11,"material":0}]},{"primitives":[{"mode":4,"attributes":{"POSITION":12,"NORMAL":13,"TEXCOORD_0":14},"indices":15,"material":0}]},{"primitives":[{"mode":4,"attributes":{"POSITION":16,"NORMAL":17,"TEXCOORD_0":18},"indices":19,"material":0}]},{"primitives":[{"mode":4,"attributes":{"POSITION":20,"NORMAL":21,"TEXCOORD_0":22},"indices":23,"material":0}]}]}